<svg version="1.2" xmlns="http://www.w3.org/2000/svg" viewBox="0 0 1797 360" width="1797" height="360"><style></style><path fill="#9eb0b7"  d="m285.5 21.5v112.5h21v-42.8h6l32.8 42.8h26.6l-37.3-45.8c15.9-3.5 26.1-15 26.1-32.6 0-21.8-15.6-34.1-37.7-34.1zm21 16.8h10.1c12.6 0 22.1 5.1 22.1 17.3 0 12.1-9.5 17.4-22.1 17.4h-10.1zm63.5 60.9c0 21 16.8 37 39.6 37 14.6 0 27.2-6.7 33.9-17.9l-14.4-7.3c-5.3 6.4-10.9 9.3-18.4 9.3-12.2 0-20.3-7.5-20.3-18.6h54.6c0.1-1.6 0.2-2.7 0.2-4 0-20.3-15.7-35.7-36.4-35.7-21.8 0-38.8 16-38.8 37.2zm38.2-23.2c9.5 0 16.3 6.2 17.5 15.7h-34.7c0.6-9.3 7.6-15.7 17.2-15.7zm46 23c0 21 14.3 37.2 34.5 37.2 10.1 0 18.6-4.2 24.8-11.9v10.5c0 11.7-8.5 19.5-20.7 19.5-9.1 0-17.4-4.3-21.2-11l-16.3 7.9c5.9 13.3 18.8 20.3 37.5 20.3 27.2 0 40.6-14.8 40.6-35.6v-71.7h-19.9v9.7c-6.2-7.7-14.7-11.9-24.8-11.9-20.2 0-34.5 16-34.5 37zm20.8 0.1c0-11.7 8.3-20.1 19.6-20.1 11.3 0 19.4 8.4 19.4 20.1 0 11.7-8.1 20.1-19.4 20.1-11.3 0-19.6-8.4-19.6-20.1zm97.6 34.9v-69.8h-19.9v69.8zm-21.8-96.2c0 6.5 5.3 11.9 11.8 11.9 6.6 0 11.9-5.4 11.9-11.9 0-6.5-5.3-11.9-11.9-11.9-6.5 0-11.8 5.4-11.8 11.9zm35.5 87.1c7.4 7.9 16.6 11.3 27.9 11.3 17.8 0 29-7.9 29-21.7 0-11.4-8.4-17.7-22-22.6-9-3.3-13.6-5.6-13.6-9.8 0-3.8 3.4-6.5 9.6-6.5 5.1 0 10.5 1.6 14.8 5l7.1-10.7c-6.4-5.1-14.6-7.8-23.3-7.8-16.4 0-27.1 9.1-27.1 21 0 12.7 12.1 17.6 21.1 21 7.9 2.9 12.6 5.2 12.6 9.9 0 5-4.5 7.5-10.1 7.5-5.8 0-12.2-2.5-17.4-7.5zm63.4-60.8v15.1h9.1v32.2c0 15.5 7.9 24.7 21.5 24.7 6 0 12.8-1.8 17.3-4.8l-7.4-14.4c-1.5 0.9-3.4 1.4-5.1 1.4-4.2 0-6.4-2.9-6.4-8.4v-30.7h15.6v-15.1h-15.6v-26.1h-19.9v26.1zm59 69.8h19.9v-35.2c0-12.6 7.5-19.5 16.2-19.5 3.9 0 7.9 1.3 11.2 3.3l8.2-16.8c-3.5-2.2-8.7-3.8-13.9-3.8-8.8 0-17 4.4-21.7 13.7v-11.5h-19.9zm57.8-34.9c0 21.9 17.7 37.1 40.8 37.1 23 0 40.8-15.2 40.8-37.1 0-21.9-17.8-37.1-40.8-37.1-23.1 0-40.8 15.2-40.8 37.1zm20.8 0c0-11.7 8.7-20 20-20 11.3 0 20 8.3 20 20 0 11.7-8.7 20-20 20-11.3 0-20-8.3-20-20zm107.9 34.9h21l7.5-74.7 26.2 71.6h13.1l26.2-71.6 7.5 74.7h21l-11.5-112.5h-22.3l-27.5 71.9-27.3-71.9h-22.4zm169.6 2.2c24.2 0 35.4-11.5 35.4-34.7v-37.3h-19.9v32.7c0 16.1-4.4 23.1-15.5 23.1-11 0-15.4-7-15.4-23.1v-32.7h-19.9v37.3c0 23.2 11.1 34.7 35.3 34.7zm53.7-72v69.8h19.9v-39c0-11 5.9-17.4 15.6-17.4 9.3 0 15 6.1 15 16.5v39.9h19.9v-44.2c0-16.7-11.1-27.8-27.1-27.8-9.8 0-18.2 4.1-23.4 11.7v-9.5zm108.4 69.8v-69.8h-19.9v69.8zm-21.8-96.2c0 6.6 5.3 11.9 11.8 11.9 6.6 0 11.9-5.3 11.9-11.9 0-6.5-5.3-11.9-11.9-11.9-6.5 0-11.8 5.4-11.8 11.9zm75 98.4c9.3 0 17.9-2.9 23.2-7l-7.5-13c-3.3 2.4-7.9 3.7-12.7 3.7-12.5 0-20.9-9.2-20.9-20.8 0-11.6 8.4-20.8 20.9-20.8 4.8 0 9.4 1.3 12.7 3.7l7.5-13c-5.3-4.1-13.9-7-23.2-7-22 0-38.9 16.2-38.9 37.1 0 20.9 16.9 37.1 38.9 37.1zm55.6-2.2v-69.8h-20v69.8zm-21.8-96.2c0 6.6 5.3 11.9 11.9 11.9 6.5 0 11.9-5.3 11.9-11.9 0-6.5-5.4-11.9-11.9-11.9-6.6 0-11.9 5.4-11.9 11.9zm41.2 26.4v105.3h19.9v-45.2c6.2 7.7 14.7 11.9 24.8 11.9 20.1 0 34.6-16.2 34.6-37.2 0-21-14.5-37-34.6-37-10.1 0-18.6 4.2-24.8 11.9v-9.7zm19.4 34.9c0-11.7 8.2-20.1 19.5-20.1 11.2 0 19.5 8.4 19.5 20.1 0 11.7-8.3 20.1-19.5 20.1-11.3 0-19.5-8.4-19.5-20.1zm103.1 37.1c10.1 0 18.7-4.2 24.9-11.9v9.7h19.9v-69.8h-19.9v9.7c-6.2-7.7-14.8-11.9-24.9-11.9-20.1 0-34.5 16-34.5 37 0 21 14.4 37.2 34.5 37.2zm-13.6-37.1c0-11.7 8.3-20.1 19.5-20.1 11.3 0 19.4 8.4 19.4 20.1 0 11.7-8.1 20.1-19.4 20.1-11.2 0-19.5-8.4-19.5-20.1zm97.6 34.9v-117.3h-19.9v117.3zm87.9 2.2c10 0 18.6-4.2 24.8-11.9v9.7h19.9v-117.3h-19.9v57.2c-6.2-7.7-14.8-11.9-24.8-11.9-20.2 0-34.6 16-34.6 37 0 21 14.4 37.2 34.6 37.2zm-13.7-37.1c0-11.7 8.3-20.1 19.5-20.1 11.3 0 19.4 8.4 19.4 20.1 0 11.7-8.1 20.1-19.4 20.1-11.2 0-19.5-8.4-19.5-20.1zm72.6 0.1c0 21 16.9 37 39.6 37 14.7 0 27.2-6.7 33.9-17.9l-14.4-7.3c-5.2 6.4-10.9 9.3-18.4 9.3-12.1 0-20.2-7.5-20.2-18.6h54.5c0.2-1.6 0.2-2.7 0.2-4 0-20.3-15.6-35.7-36.4-35.7-21.7 0-38.8 16-38.8 37.2zm38.3-23.2c9.5 0 16.3 6.2 17.4 15.7h-34.6c0.5-9.3 7.6-15.7 17.2-15.7zm-1697.3 238v-117.3h-19.9v117.3zm48.6 2.2c10.1 0 18.6-4.2 24.9-11.9v9.7h19.9v-69.8h-19.9v9.7c-6.3-7.7-14.8-11.9-24.9-11.9-20.1 0-34.5 16-34.5 37 0 21 14.4 37.2 34.5 37.2zm-13.6-37.1c0-11.7 8.2-20.1 19.5-20.1 11.3 0 19.4 8.4 19.4 20.1 0 11.7-8.1 20.1-19.4 20.1-11.3 0-19.5-8.4-19.5-20.1zm117 34.9h21v-43.5h16.4c22 0 37.7-12.3 37.7-34.5 0-22.2-15.7-34.5-37.7-34.5h-37.4zm31-95.7c12.1 0 22.1 5.2 22.1 17.7 0 12.6-10 17.7-22.1 17.7h-10v-35.4zm52.6 95.7h19.9v-35.2c0-12.6 7.5-19.5 16.2-19.5 3.8 0 7.9 1.3 11.1 3.3l8.3-16.8c-3.6-2.2-8.8-3.8-13.9-3.8-8.8 0-17 4.4-21.7 13.6v-11.4h-19.9zm57.8-34.9c0 21.9 17.7 37.1 40.8 37.1 23 0 40.7-15.2 40.7-37.1 0-21.9-17.7-37.1-40.7-37.1-23.1 0-40.8 15.2-40.8 37.1zm20.8 0c0-11.7 8.6-20.1 20-20.1 11.3 0 19.9 8.4 19.9 20.1 0 11.7-8.6 20-19.9 20-11.4 0-20-8.3-20-20zm74.7-34.9v105.2h19.9v-45.1c6.2 7.6 14.7 11.9 24.8 11.9 20.1 0 34.6-16.2 34.6-37.2 0-21-14.5-37-34.6-37-10.1 0-18.6 4.2-24.8 11.9v-9.7zm19.4 34.9c0-11.7 8.2-20.1 19.5-20.1 11.2 0 19.5 8.4 19.5 20.1 0 11.7-8.3 20.1-19.5 20.1-11.3 0-19.5-8.4-19.5-20.1zm93.8 34.9v-69.8h-19.9v69.8zm-21.8-96.2c0 6.5 5.3 11.9 11.8 11.9 6.6 0 11.9-5.4 11.9-11.9 0-6.6-5.3-11.9-11.9-11.9-6.5 0-11.8 5.3-11.8 11.9zm36.1 61.4c0 20.9 16.8 37 39.6 37 14.7 0 27.2-6.7 33.9-17.9l-14.4-7.3c-5.2 6.4-10.9 9.3-18.4 9.3-12.1 0-20.2-7.5-20.2-18.6h54.5c0.1-1.6 0.2-2.7 0.2-4 0-20.3-15.6-35.7-36.4-35.7-21.7 0-38.8 16-38.8 37.2zm38.3-23.2c9.4 0 16.3 6.2 17.4 15.7h-34.6c0.5-9.3 7.5-15.7 17.2-15.7zm80.5 60.2c10 0 18.6-4.3 24.7-11.9v9.7h19.9v-117.3h-19.9v57.2c-6.1-7.7-14.7-11.9-24.7-11.9-20.2 0-34.7 16-34.7 37 0 21 14.5 37.2 34.7 37.2zm-13.7-37.1c0-11.7 8.2-20.1 19.5-20.1 11.3 0 19.4 8.4 19.4 20.1 0 11.7-8.1 20.1-19.4 20.1-11.3 0-19.5-8.4-19.5-20.1zm106.9 37.1c10 0 18.6-4.3 24.8-12v9.8h19.9v-69.8h-19.9v9.7c-6.2-7.7-14.8-11.9-24.8-11.9-20.1 0-34.6 16-34.6 37 0 21 14.5 37.2 34.6 37.2zm-13.7-37.1c0-11.7 8.3-20.1 19.5-20.1 11.4 0 19.5 8.4 19.5 20.1 0 11.6-8.1 20.1-19.5 20.1-11.2 0-19.5-8.5-19.5-20.1zm107 37.1c10 0 18.6-4.3 24.8-11.9v9.7h19.9v-117.3h-19.9v57.2c-6.2-7.7-14.8-11.9-24.8-11.9-20.2 0-34.6 16-34.6 37 0 21 14.4 37.2 34.6 37.2zm-13.7-37.1c0-11.7 8.3-20.1 19.5-20.1 11.3 0 19.5 8.4 19.5 20.1 0 11.7-8.2 20.1-19.5 20.1-11.2 0-19.5-8.4-19.5-20.1zm146.3 37.1c10 0 18.6-4.3 24.7-11.9v9.7h19.9v-117.3h-19.9v57.2c-6.1-7.7-14.7-11.9-24.7-11.9-20.2 0-34.7 16-34.7 37 0 21 14.5 37.2 34.7 37.2zm-13.7-37.1c0-11.7 8.2-20.1 19.5-20.1 11.3 0 19.4 8.4 19.4 20.1 0 11.7-8.1 20.1-19.4 20.1-11.3 0-19.5-8.4-19.5-20.1zm72.6 0.1c0 20.9 16.8 37 39.6 37 14.6 0 27.2-6.7 33.9-17.9l-14.4-7.3c-5.3 6.4-10.9 9.3-18.4 9.3-12.2 0-20.3-7.5-20.3-18.6h54.6c0.1-1.6 0.2-2.7 0.2-4 0-20.3-15.6-35.7-36.4-35.7-21.8 0-38.8 16-38.8 37.2zm38.2-23.2c9.5 0 16.3 6.2 17.5 15.7h-34.7c0.6-9.3 7.6-15.7 17.2-15.7zm84.1 58h21l7.5-74.7 26.2 71.6h13.1l26.2-71.6 7.5 74.7h21l-11.4-112.5h-22.4l-27.5 71.9-27.3-71.9h-22.4zm164.7 2.2c10.1 0 18.7-4.3 24.9-12v9.8h19.9v-69.8h-19.9v9.7c-6.2-7.7-14.8-11.9-24.9-11.9-20.1 0-34.5 16-34.5 37 0 21 14.4 37.2 34.5 37.2zm-13.6-37.1c0-11.7 8.3-20.1 19.5-20.1 11.3 0 19.4 8.4 19.4 20.1 0 11.6-8.1 20.1-19.4 20.1-11.2 0-19.5-8.5-19.5-20.1zm111.5 37.1c9.3 0 17.9-3 23.2-7l-7.5-13c-3.3 2.4-7.9 3.7-12.7 3.7-12.5 0-20.9-9.2-20.9-20.8 0-11.6 8.4-20.8 20.9-20.8 4.8 0 9.4 1.3 12.7 3.7l7.5-13.1c-5.3-4-13.9-6.9-23.2-6.9-22 0-38.9 16.2-38.9 37.1 0 20.8 16.9 37.1 38.9 37.1zm36.1-119.5v117.3h19.9v-41.7c0-8.2 5.8-14.7 15.5-14.7 9.3 0 15.1 6.1 15.1 16.5v39.9h19.9v-44.1c0-16.7-11.1-27.9-27.2-27.9-9.8 0-18.2 4.1-23.3 10.1v-55.4zm117.7 119.5c10 0 18.6-4.3 24.8-12v9.8h19.9v-69.8h-19.9v9.7c-6.2-7.7-14.8-11.9-24.8-11.9-20.1 0-34.6 16-34.6 37 0 21 14.5 37.2 34.6 37.2zm-13.6-37.1c0-11.7 8.2-20.1 19.5-20.1 11.3 0 19.4 8.4 19.4 20.1 0 11.6-8.1 20.1-19.4 20.1-11.3 0-19.5-8.5-19.5-20.1zm97.5 34.9v-117.3h-19.9v117.3zm48.7 2.2c10 0 18.6-4.3 24.8-12v9.8h19.9v-69.8h-19.9v9.7c-6.2-7.7-14.8-11.9-24.8-11.9-20.2 0-34.6 16-34.6 37 0 21 14.4 37.2 34.6 37.2zm-13.7-37.1c0-11.7 8.3-20.1 19.5-20.1 11.3 0 19.4 8.4 19.4 20.1 0 11.6-8.1 20.1-19.4 20.1-11.2 0-19.5-8.5-19.5-20.1z"/></svg>