<svg
  viewBox="0 0 307.311 86.993"
  xmlns="http://www.w3.org/2000/svg"
>
  <g id="OBJECTS">
    <g
      transform="matrix(0.1, 0, 0, -0.1, 109.733789, 115.165689)"
      stroke="none"
    >
      <g>
        <g transform="matrix(10, 0, 0, -10, -5544.270102, 5054.188552)">
          <polygon
            fill="#282960"
            points="482.694,433.824 446.028,476.163 519.361,476.163 &#9;&#9;"
          />
          <polygon
            fill="#6366f1"
            points="519.361,391.485 446.028,391.485 482.694,433.824 519.361,476.163 556.028,433.824 &#9;&#9;"
          />
        </g>
        <path
          fill="#282960"
          d="M267 1080 c-107 -27 -177 -110 -177 -210 0 -95 61 -159 204 -214 50 -20 101 -43 114 -52 30 -21 25 -54 -10 -73 -22 -13 -37 -13 -93 -4 -37 6 -90 23 -119 37 -28 14 -54 22 -57 18 -3 -4 -23 -37 -43 -73 l-36 -67 30 -25 c58 -49 134 -71 250 -71 89 -1 113 3 155 22 92 42 144 114 145 200 0 95 -59 159 -194 212 -116 45 -148 65 -144 93 6 46 147 45 225 -2 l28 -17 49 64 c59 78 57 83 -37 131 -59 30 -78 34 -159 37 -51 2 -110 -1 -131 -6z"
        />
        <path
          fill="#282960"
          d="M1059 1076 c-105 -28 -191 -104 -231 -205 -21 -51 -23 -76 -26 -288 l-3 -233 90 0 91 0 0 203 c0 216 8 256 58 300 27 24 88 46 130 47 l32 0 0 95 0 95 -47 -1 c-27 0 -69 -6 -94 -13z"
        />
        <path
          fill="#6366f1"
          d="M1280 1075 c0 -2 50 -82 112 -177 61 -95 111 -177 111 -183 0 -5 -50 -88 -112 -182 -61 -95 -111 -175 -111 -178 0 -3 48 -5 108 -5 l107 0 59 90 c32 50 62 90 66 90 4 0 34 -40 66 -90 l59 -90 108 0 c59 0 107 2 107 5 0 2 -49 80 -108 172 -59 92 -111 173 -115 179 -4 7 45 91 108 188 63 97 115 179 115 181 0 3 -48 5 -107 5 l-108 0 -59 -90 c-32 -50 -62 -90 -66 -90 -4 0 -34 40 -66 90 l-59 90 -107 0 c-60 0 -108 -2 -108 -5z"
        />
      </g>
    </g>
  </g>
</svg>